<svg xmlns="http://www.w3.org/2000/svg" xmlns:xlink="http://www.w3.org/1999/xlink" width="48" height="48" version="1.1" viewBox="0 0 48 48"><title>client-1</title><desc>Created with Sketch.</desc><g id="Personal-1-mixed" fill="none" fill-rule="evenodd" stroke="none" stroke-width="1" opacity=".3"><g id="clients" fill-rule="nonzero"><g transform="translate(-420.000000, -4934.000000) translate(350.000000, 4446.000000)"><g id="Group-5" transform="translate(59.000000, 487.000000)"><g id="client-1" transform="translate(11.000000, 1.000000)"><path id="Path" fill="#282642" d="M45.6000835,0 L2.39981217,0 C1.07134845,0 0,1.07144814 0,2.40001043 L0,45.5999896 C0,46.9285519 1.07134845,48 2.39981217,48 L45.6000835,48 C46.9286516,48 48,46.9285519 48,45.5999896 L48,2.40001043 C48,1.07144814 46.9286516,0 45.6000835,0"/><rect id="Rectangle" width="5" height="21.2" x="14" y="14" fill="#FFF"/><rect id="Rectangle" width="13" height="5" x="22" y="30" fill="#FFF"/><rect id="Rectangle" width="13" height="5" x="22" y="22" fill="#FFF"/><rect id="Rectangle" width="13" height="5" x="22" y="14" fill="#FFF"/></g></g></g></g></g></svg>