<svg xmlns="http://www.w3.org/2000/svg" xmlns:xlink="http://www.w3.org/1999/xlink" width="36" height="50" version="1.1" viewBox="0 0 36 50"><title>client-3</title><desc>Created with Sketch.</desc><g id="Personal-1-mixed" fill="none" fill-rule="evenodd" stroke="none" stroke-width="1" opacity=".3"><g id="clients" fill-rule="nonzero"><g transform="translate(-973.000000, -4933.000000) translate(350.000000, 4446.000000)"><g id="Group-5" transform="translate(59.000000, 487.000000)"><g id="client-3" transform="translate(564.000000, 0.000000)"><polygon id="Path" fill="#282642" points="3.276 46.001 0 10 36 10 32.72 45.996 17.978 50"/><polygon id="Path" fill="#282642" points="18 47 30.143 43.764 33 13 18 13"/><g id="Group" fill="#EBEBEB" transform="translate(7.000000, 17.000000)"><polygon id="Path" points="11 8.936 5.202 8.936 4.801 4.43 11 4.43 11 .03 10.985 .03 .013 .03 .118 1.21 1.195 13.336 11 13.336"/><polygon id="Path" points="11 20.364 10.981 20.369 6.101 19.046 5.789 15.536 3.418 15.536 1.39 15.536 2.004 22.445 10.98 24.947 11 24.942"/></g><g id="Group" fill="#282642" transform="translate(4.000000, 0.000000)"><polygon id="Path" points=".037 0 2.291 0 2.291 2.28 4.352 2.28 4.352 0 6.605 0 6.605 6.904 4.352 6.904 4.352 4.592 2.291 4.592 2.291 6.904 .037 6.904 .037 0"/><polygon id="Path" points="9.568 2.29 7.585 2.29 7.585 0 13.807 0 13.807 2.29 11.822 2.29 11.822 6.904 9.569 6.904 9.569 2.29"/><polygon id="Path" points="14.794 0 17.144 0 18.589 2.426 20.033 0 22.383 0 22.383 6.904 20.139 6.904 20.139 3.482 18.589 5.937 18.55 5.937 16.999 3.482 16.999 6.904 14.794 6.904 14.794 0"/><polygon id="Path" points="23.505 0 25.759 0 25.759 4.622 28.927 4.622 28.927 6.904 23.505 6.904"/></g><g id="Group" fill="#FFF" transform="translate(18.000000, 17.000000)"><polygon id="Path" points=".081 8.936 .081 13.336 5.429 13.336 4.925 19.043 .081 20.367 .081 24.945 8.985 22.445 9.051 21.702 10.071 10.117 10.177 8.936 9.007 8.936"/><polygon id="Path" points=".081 .03 .081 2.763 .081 4.419 .081 4.43 10.559 4.43 10.559 4.43 10.573 4.43 10.66 3.441 10.858 1.21 10.961 .03"/></g></g></g></g></g></g></svg>